<svg xmlns="http://www.w3.org/2000/svg" width="182" height="6" viewBox="0 0 182 6"><g id="Group_1317" data-name="Group 1317" transform="translate(-441 -521)"><circle id="Ellipse_95" cx="3" cy="3" r="3" fill="#c5cae1" data-name="Ellipse 95" opacity=".15" transform="translate(441 521)"/><circle id="Ellipse_95-2" cx="3" cy="3" r="3" fill="#c5cae1" data-name="Ellipse 95" opacity=".2" transform="translate(457 521)"/><circle id="Ellipse_95-3" cx="3" cy="3" r="3" fill="#c5cae1" data-name="Ellipse 95" opacity=".3" transform="translate(473 521)"/><circle id="Ellipse_95-4" cx="3" cy="3" r="3" fill="#c5cae1" data-name="Ellipse 95" opacity=".35" transform="translate(489 521)"/><circle id="Ellipse_95-5" cx="3" cy="3" r="3" fill="#c5cae1" data-name="Ellipse 95" opacity=".4" transform="translate(505 521)"/><circle id="Ellipse_95-6" cx="3" cy="3" r="3" fill="#c5cae1" data-name="Ellipse 95" opacity=".5" transform="translate(521 521)"/><circle id="Ellipse_95-7" cx="3" cy="3" r="3" fill="#c5cae1" data-name="Ellipse 95" opacity=".55" transform="translate(537 521)"/><circle id="Ellipse_95-8" cx="3" cy="3" r="3" fill="#c5cae1" data-name="Ellipse 95" opacity=".6" transform="translate(553 521)"/><circle id="Ellipse_95-9" cx="3" cy="3" r="3" fill="#c5cae1" data-name="Ellipse 95" opacity=".65" transform="translate(569 521)"/><circle id="Ellipse_95-10" cx="3" cy="3" r="3" fill="#c5cae1" data-name="Ellipse 95" opacity=".7" transform="translate(585 521)"/><circle id="Ellipse_95-11" cx="3" cy="3" r="3" fill="#c5cae1" data-name="Ellipse 95" opacity=".8" transform="translate(601 521)"/><circle id="Ellipse_95-12" cx="3" cy="3" r="3" fill="#c5cae1" data-name="Ellipse 95" opacity=".9" transform="translate(617 521)"/></g></svg>