<svg xmlns="http://www.w3.org/2000/svg" id="paint_1_" width="60" height="60" data-name="paint (1)" viewBox="0 0 60 60"><path id="Path_1295" fill="#ac92eb" d="M1.249,383.913A1.25,1.25,0,0,0,0,385.164v12.5a1.248,1.248,0,0,0,1.249,1.249h57.5A1.25,1.25,0,0,0,60,397.664v-12.5a1.252,1.252,0,0,0-1.253-1.251Z" data-name="Path 1295" transform="translate(0 -338.913)"/><path id="Path_1296" fill="#5d9cec" d="M58.4,233.372,53.61,221.823a1.249,1.249,0,0,0-1.633-.676L0,242.677v6.5l2.468,5.96H9.105L57.72,235A1.251,1.251,0,0,0,58.4,233.372Z" data-name="Path 1296" transform="translate(-0.001 -195.141)"/><path id="Path_1297" fill="#4fc2e9" d="M0,134.6,4.494,139.1H10.53l38.525-38.524a1.253,1.253,0,0,0,0-1.769l-8.84-8.839a1.248,1.248,0,0,0-1.767,0L0,128.415Z" data-name="Path 1297" transform="translate(-0.001 -79.097)"/><path id="Path_1298" fill="#48cfad" d="M0,68.883l6.006,2.488h6.5L34.04,19.393a1.248,1.248,0,0,0-.676-1.633L21.816,12.977a1.249,1.249,0,0,0-1.633.676L0,62.381Z" data-name="Path 1298" transform="translate(-0.001 -11.372)"/><path id="Path_1299" fill="#a0d468" d="M0,58.751A1.248,1.248,0,0,0,1.249,60h12.5A1.25,1.25,0,0,0,15,58.751V1.251A1.251,1.251,0,0,0,13.748,0H1.249A1.25,1.25,0,0,0,0,1.251v57.5H0Z" data-name="Path 1299"/><path id="Path_1300" fill="#e6e9ed" d="M0,383.927v13.749a1.248,1.248,0,0,0,1.249,1.249h12.5A1.25,1.25,0,0,0,15,397.676V383.927Z" data-name="Path 1300" transform="translate(-0.001 -338.925)"/><path id="Path_1301" d="M54.553,437.243a1.25,1.25,0,1,0,1.249,1.249A1.25,1.25,0,0,0,54.553,437.243Z" data-name="Path 1301" transform="translate(-47.053 -385.992)"/><path id="Path_1302" d="M55.03,440.041a1.25,1.25,0,1,1,.677-1.633A1.251,1.251,0,0,1,55.03,440.041Z" data-name="Path 1302" transform="translate(-47.053 -386.338)"/><path id="Path_1303" d="M55.539,438.621a1.25,1.25,0,1,1,0-1.769A1.251,1.251,0,0,1,55.539,438.621Z" data-name="Path 1303" transform="translate(-47.146 -385.324)"/><path id="Path_1304" d="M55.708,438.966a1.251,1.251,0,1,1-.677-1.633A1.251,1.251,0,0,1,55.708,438.966Z" data-name="Path 1304" transform="translate(-47.054 -385.986)"/><path id="Path_1305" d="M53.3,438.492a1.251,1.251,0,1,0,1.252-1.249A1.251,1.251,0,0,0,53.3,438.492Z" data-name="Path 1305" transform="translate(-47.053 -385.992)"/><path id="Path_1306" fill="#434a54" d="M53.3,438.492a1.251,1.251,0,1,0,1.252-1.249A1.251,1.251,0,0,0,53.3,438.492Z" data-name="Path 1306" transform="translate(-47.053 -385.992)"/></svg>