<svg xmlns="http://www.w3.org/2000/svg" id="collapse_icon" width="18" height="13.46" data-name="collapse icon" viewBox="0 0 18 13.46"><g id="Group_3" data-name="Group 3" transform="translate(0 11.956)"><g id="Group_2" data-name="Group 2"><path id="Path_1" fill="#adb4d2" d="M99.375,403.7H85.352a.752.752,0,0,1,0-1.5H99.375a.752.752,0,0,1,0,1.5Z" data-name="Path 1" transform="translate(-84.6 -402.2)"/></g></g><g id="Group_5" data-name="Group 5" transform="translate(0.004 5.978)"><g id="Group_4" data-name="Group 4"><path id="Path_2" fill="#adb4d2" d="M17.269,239.1H.728a.752.752,0,0,1,0-1.5H17.269a.752.752,0,0,1,0,1.5Z" data-name="Path 2" transform="translate(0 -237.6)"/></g></g><g id="Group_7" data-name="Group 7" transform="translate(0 0)"><g id="Group_6" data-name="Group 6"><path id="Path_3" fill="#adb4d2" d="M186.106,74.5H175.352a.752.752,0,1,1,0-1.5h10.75a.752.752,0,1,1,0,1.5Z" data-name="Path 3" transform="translate(-174.6 -73)"/></g></g></svg>