<svg xmlns="http://www.w3.org/2000/svg" width="50" height="50" viewBox="0 0 50 50"><g id="Slack" transform="translate(-26.002 -26.001)"><g id="Group_1822" data-name="Group 1822" transform="translate(26.002 26.001)"><path id="Path_1345" fill="#e01e5a" d="M36.516,273.621a5.257,5.257,0,1,1-5.257-5.257h5.257Z" data-name="Path 1345" transform="translate(-26.003 -242.026)"/><path id="Path_1346" fill="#e01e5a" d="M147,273.621a5.257,5.257,0,0,1,10.514,0v13.163a5.257,5.257,0,0,1-10.514,0Z" data-name="Path 1346" transform="translate(-133.847 -242.04)"/><path id="Path_1347" fill="#36c5f0" d="M152.253,36.516a5.257,5.257,0,1,1,5.257-5.257v5.257Z" data-name="Path 1347" transform="translate(-133.847 -26.002)"/><path id="Path_1348" fill="#36c5f0" d="M44.422,147a5.257,5.257,0,1,1,0,10.513H31.259a5.257,5.257,0,0,1,0-10.513Z" data-name="Path 1348" transform="translate(-26.002 -133.848)"/><path id="Path_1349" fill="#2eb67d" d="M389.359,152.254a5.257,5.257,0,1,1,5.257,5.256h-5.257v-5.256Z" data-name="Path 1349" transform="translate(-349.872 -133.848)"/><path id="Path_1350" fill="#2eb67d" d="M278.877,44.421a5.257,5.257,0,0,1-10.514,0V31.258a5.257,5.257,0,0,1,10.514,0V44.421Z" data-name="Path 1350" transform="translate(-242.025 -26.001)"/><path id="Path_1351" fill="#ecb22e" d="M273.62,389.358a5.257,5.257,0,1,1-5.257,5.257v-5.257Z" data-name="Path 1351" transform="translate(-242.025 -349.871)"/><path id="Path_1352" fill="#ecb22e" d="M273.62,278.878a5.257,5.257,0,0,1,0-10.514h13.163a5.257,5.257,0,0,1,0,10.514Z" data-name="Path 1352" transform="translate(-242.039 -242.026)"/></g></g></svg>