<svg xmlns="http://www.w3.org/2000/svg" width="62.069" height="60" viewBox="0 0 62.069 60"><g id="strategy" transform="translate(-2 -3)"><path id="Path_1069" fill="#e34e4b" d="M2,39l3.1,7.241L2,50.379l3.1,4.138L2,61.759,23.724,50.379Z" data-name="Path 1069" transform="translate(0 1.241)"/><path id="Path_1070" fill="#de4542" d="M5.1,54.276l18.621-4.138L5.1,46,2,50.138Z" data-name="Path 1070" transform="translate(0 1.483)"/><circle id="Ellipse_165" cx="15.5" cy="15.5" r="15.5" fill="#50b6cf" data-name="Ellipse 165" transform="translate(33 3)"/><path id="Path_1071" fill="#3cadc9" d="M59.5,8.542A15.507,15.507,0,0,1,33.477,25.007,15.509,15.509,0,1,0,59.5,8.542Z" data-name="Path 1071" transform="translate(1.085 0.191)"/><ellipse id="Ellipse_166" cx="9.5" cy="10.5" fill="#ded8d0" data-name="Ellipse 166" rx="9.5" ry="10.5" transform="translate(39 8)"/><ellipse id="Ellipse_167" cx="4.5" cy="5.5" fill="#f5a947" data-name="Ellipse 167" rx="4.5" ry="5.5" transform="translate(44 13)"/><g id="Group_1758" data-name="Group 1758" transform="translate(10.276 14.682)"><path id="Path_1072" fill="#223b5a" d="M55,52.172H25.517V50.1H55a5.69,5.69,0,0,0,0-11.379H20.862a10.862,10.862,0,0,1,0-21.724H48.276v2.069H20.862a8.793,8.793,0,0,0,0,17.586H55a7.759,7.759,0,0,1,0,15.517Z" data-name="Path 1072" transform="translate(-10 -14.2)"/><path id="Path_1073" fill="#223b5a" d="M24.756,21.963,23.293,20.5l2.372-2.372-2.372-2.372,1.463-1.463,3.835,3.835Z" data-name="Path 1073" transform="translate(-9.542 -14.293)"/><path id="Path_1074" fill="#223b5a" d="M44.756,21.963,43.293,20.5l2.372-2.372-2.372-2.372,1.463-1.463,3.835,3.835Z" data-name="Path 1074" transform="translate(-8.852 -14.293)"/><path id="Path_1075" fill="#223b5a" d="M34.421,40.963l-3.835-3.835,3.835-3.835,1.463,1.463-2.372,2.372L35.884,39.5Z" data-name="Path 1075" transform="translate(-9.29 -13.638)"/><path id="Path_1076" fill="#223b5a" d="M41.756,53.963,40.293,52.5l2.372-2.372-2.372-2.372,1.463-1.463,3.835,3.835Z" data-name="Path 1076" transform="translate(-8.955 -13.189)"/></g><path id="Path_1077" fill="#d43a37" d="M2,50H23.724L5.1,54.138Z" data-name="Path 1077" transform="translate(0 1.621)"/></g></svg>